<mxfile host="app.diagrams.net" modified="2024-07-20T03:52:03.116Z" agent="Mozilla/5.0 (Macintosh; Intel Mac OS X 10_15_7) AppleWebKit/537.36 (KHTML, like Gecko) Chrome/126.0.0.0 Safari/537.36" etag="ivVTJPMxfB5y7aHN0OjM" version="24.7.1" type="device">
  <diagram name="Page-1" id="ab8d-WiU6eru4OoNTAOd">
    <mxGraphModel dx="6931" dy="4437" grid="1" gridSize="10" guides="1" tooltips="1" connect="1" arrows="1" fold="1" page="1" pageScale="1" pageWidth="827" pageHeight="1169" math="0" shadow="0">
      <root>
        <mxCell id="0" />
        <mxCell id="1" parent="0" />
        <mxCell id="48MLGOUjKtrmcHyPgKex-269" style="edgeStyle=orthogonalEdgeStyle;rounded=0;orthogonalLoop=1;jettySize=auto;html=1;exitX=0.5;exitY=1;exitDx=0;exitDy=0;entryX=0.5;entryY=0;entryDx=0;entryDy=0;" edge="1" parent="1" source="eBi0IiiwcB5EqKBCC25g-3" target="48MLGOUjKtrmcHyPgKex-268">
          <mxGeometry relative="1" as="geometry" />
        </mxCell>
        <mxCell id="eBi0IiiwcB5EqKBCC25g-3" value="" style="rounded=1;whiteSpace=wrap;html=1;" parent="1" vertex="1">
          <mxGeometry x="110" y="-700" width="400" height="820" as="geometry" />
        </mxCell>
        <mxCell id="48MLGOUjKtrmcHyPgKex-157" value="" style="edgeStyle=orthogonalEdgeStyle;rounded=0;orthogonalLoop=1;jettySize=auto;html=1;" edge="1" parent="1" source="eBi0IiiwcB5EqKBCC25g-1" target="eBi0IiiwcB5EqKBCC25g-52">
          <mxGeometry relative="1" as="geometry" />
        </mxCell>
        <mxCell id="eBi0IiiwcB5EqKBCC25g-1" value="choose first player among the ones with min points" style="rounded=1;whiteSpace=wrap;html=1;" parent="1" vertex="1">
          <mxGeometry x="160" y="-540" width="120" height="60" as="geometry" />
        </mxCell>
        <mxCell id="48MLGOUjKtrmcHyPgKex-129" style="edgeStyle=orthogonalEdgeStyle;rounded=0;orthogonalLoop=1;jettySize=auto;html=1;exitX=0.5;exitY=1;exitDx=0;exitDy=0;entryX=0.5;entryY=0;entryDx=0;entryDy=0;" edge="1" parent="1" source="eBi0IiiwcB5EqKBCC25g-5" target="eBi0IiiwcB5EqKBCC25g-54">
          <mxGeometry relative="1" as="geometry" />
        </mxCell>
        <mxCell id="eBi0IiiwcB5EqKBCC25g-5" value="current player chooses question" style="whiteSpace=wrap;html=1;rounded=1;" parent="1" vertex="1">
          <mxGeometry x="235" y="-350" width="120" height="60" as="geometry" />
        </mxCell>
        <mxCell id="eBi0IiiwcB5EqKBCC25g-7" value="playing round" style="text;html=1;align=center;verticalAlign=middle;resizable=0;points=[];autosize=1;strokeColor=none;fillColor=none;" parent="1" vertex="1">
          <mxGeometry x="344" y="-390" width="100" height="30" as="geometry" />
        </mxCell>
        <mxCell id="48MLGOUjKtrmcHyPgKex-131" style="edgeStyle=orthogonalEdgeStyle;rounded=0;orthogonalLoop=1;jettySize=auto;html=1;exitX=1;exitY=0.5;exitDx=0;exitDy=0;entryX=0.5;entryY=0;entryDx=0;entryDy=0;" edge="1" parent="1" source="eBi0IiiwcB5EqKBCC25g-8" target="48MLGOUjKtrmcHyPgKex-128">
          <mxGeometry relative="1" as="geometry">
            <Array as="points">
              <mxPoint x="410" y="-160" />
              <mxPoint x="410" y="520" />
              <mxPoint x="1270" y="520" />
              <mxPoint x="1270" y="180" />
              <mxPoint x="2800" y="180" />
            </Array>
          </mxGeometry>
        </mxCell>
        <mxCell id="eBi0IiiwcB5EqKBCC25g-8" value="question is played" style="whiteSpace=wrap;html=1;rounded=1;" parent="1" vertex="1">
          <mxGeometry x="235" y="-190" width="120" height="60" as="geometry" />
        </mxCell>
        <mxCell id="eBi0IiiwcB5EqKBCC25g-21" style="edgeStyle=orthogonalEdgeStyle;rounded=0;orthogonalLoop=1;jettySize=auto;html=1;exitX=0;exitY=0.5;exitDx=0;exitDy=0;entryX=0;entryY=0.5;entryDx=0;entryDy=0;" parent="1" source="eBi0IiiwcB5EqKBCC25g-17" target="eBi0IiiwcB5EqKBCC25g-5" edge="1">
          <mxGeometry relative="1" as="geometry" />
        </mxCell>
        <mxCell id="eBi0IiiwcB5EqKBCC25g-23" value="" style="edgeStyle=orthogonalEdgeStyle;rounded=0;orthogonalLoop=1;jettySize=auto;html=1;" parent="1" source="eBi0IiiwcB5EqKBCC25g-17" target="eBi0IiiwcB5EqKBCC25g-22" edge="1">
          <mxGeometry relative="1" as="geometry" />
        </mxCell>
        <mxCell id="eBi0IiiwcB5EqKBCC25g-17" value="is last question?" style="rhombus;whiteSpace=wrap;html=1;rounded=1;" parent="1" vertex="1">
          <mxGeometry x="217.5" y="-24" width="155" height="80" as="geometry" />
        </mxCell>
        <mxCell id="eBi0IiiwcB5EqKBCC25g-22" value="" style="shape=waypoint;sketch=0;size=6;pointerEvents=1;points=[];fillColor=default;resizable=0;rotatable=0;perimeter=centerPerimeter;snapToPoint=1;rounded=1;" parent="1" vertex="1">
          <mxGeometry x="285" y="90" width="20" height="20" as="geometry" />
        </mxCell>
        <mxCell id="eBi0IiiwcB5EqKBCC25g-48" value="" style="shape=parallelogram;perimeter=parallelogramPerimeter;whiteSpace=wrap;html=1;fixedSize=1;" parent="1" vertex="1">
          <mxGeometry x="1730" y="-450" width="120" height="60" as="geometry" />
        </mxCell>
        <mxCell id="eBi0IiiwcB5EqKBCC25g-49" value="" style="shape=hexagon;perimeter=hexagonPerimeter2;whiteSpace=wrap;html=1;fixedSize=1;" parent="1" vertex="1">
          <mxGeometry x="1900" y="-460" width="120" height="80" as="geometry" />
        </mxCell>
        <mxCell id="eBi0IiiwcB5EqKBCC25g-50" value="player event" style="text;html=1;align=center;verticalAlign=middle;resizable=0;points=[];autosize=1;strokeColor=none;fillColor=none;" parent="1" vertex="1">
          <mxGeometry x="1745" y="-480" width="90" height="30" as="geometry" />
        </mxCell>
        <mxCell id="eBi0IiiwcB5EqKBCC25g-51" value="admin event" style="text;html=1;align=center;verticalAlign=middle;resizable=0;points=[];autosize=1;strokeColor=none;fillColor=none;" parent="1" vertex="1">
          <mxGeometry x="1915" y="-490" width="90" height="30" as="geometry" />
        </mxCell>
        <mxCell id="48MLGOUjKtrmcHyPgKex-158" value="" style="edgeStyle=orthogonalEdgeStyle;rounded=0;orthogonalLoop=1;jettySize=auto;html=1;entryX=0.5;entryY=0;entryDx=0;entryDy=0;" edge="1" parent="1" source="eBi0IiiwcB5EqKBCC25g-52" target="eBi0IiiwcB5EqKBCC25g-5">
          <mxGeometry relative="1" as="geometry" />
        </mxCell>
        <mxCell id="eBi0IiiwcB5EqKBCC25g-52" value="choose first player (player)" style="shape=hexagon;perimeter=hexagonPerimeter2;whiteSpace=wrap;html=1;fixedSize=1;" parent="1" vertex="1">
          <mxGeometry x="155" y="-450" width="130" height="40" as="geometry" />
        </mxCell>
        <mxCell id="48MLGOUjKtrmcHyPgKex-130" style="edgeStyle=orthogonalEdgeStyle;rounded=0;orthogonalLoop=1;jettySize=auto;html=1;exitX=0.5;exitY=1;exitDx=0;exitDy=0;entryX=0.5;entryY=0;entryDx=0;entryDy=0;" edge="1" parent="1" source="eBi0IiiwcB5EqKBCC25g-54" target="eBi0IiiwcB5EqKBCC25g-8">
          <mxGeometry relative="1" as="geometry" />
        </mxCell>
        <mxCell id="eBi0IiiwcB5EqKBCC25g-54" value="player chooses question (question)" style="shape=parallelogram;perimeter=parallelogramPerimeter;whiteSpace=wrap;html=1;fixedSize=1;" parent="1" vertex="1">
          <mxGeometry x="230" y="-270" width="130" height="60" as="geometry" />
        </mxCell>
        <mxCell id="48MLGOUjKtrmcHyPgKex-136" value="" style="edgeStyle=orthogonalEdgeStyle;rounded=0;orthogonalLoop=1;jettySize=auto;html=1;" edge="1" parent="1" source="48MLGOUjKtrmcHyPgKex-10" target="48MLGOUjKtrmcHyPgKex-135">
          <mxGeometry relative="1" as="geometry" />
        </mxCell>
        <mxCell id="48MLGOUjKtrmcHyPgKex-10" value="" style="rounded=1;whiteSpace=wrap;html=1;" vertex="1" parent="1">
          <mxGeometry x="890" y="636" width="1080" height="1100" as="geometry" />
        </mxCell>
        <mxCell id="48MLGOUjKtrmcHyPgKex-11" value="simple question" style="text;html=1;align=center;verticalAlign=middle;resizable=0;points=[];autosize=1;strokeColor=none;fillColor=none;" vertex="1" parent="1">
          <mxGeometry x="960" y="676" width="110" height="30" as="geometry" />
        </mxCell>
        <mxCell id="48MLGOUjKtrmcHyPgKex-16" value="" style="edgeStyle=orthogonalEdgeStyle;rounded=0;orthogonalLoop=1;jettySize=auto;html=1;" edge="1" parent="1" source="48MLGOUjKtrmcHyPgKex-17" target="48MLGOUjKtrmcHyPgKex-21">
          <mxGeometry relative="1" as="geometry" />
        </mxCell>
        <mxCell id="48MLGOUjKtrmcHyPgKex-37" style="edgeStyle=orthogonalEdgeStyle;rounded=0;orthogonalLoop=1;jettySize=auto;html=1;exitX=0.75;exitY=1;exitDx=0;exitDy=0;entryX=0.5;entryY=0;entryDx=0;entryDy=0;" edge="1" parent="1" source="48MLGOUjKtrmcHyPgKex-17" target="48MLGOUjKtrmcHyPgKex-36">
          <mxGeometry relative="1" as="geometry" />
        </mxCell>
        <mxCell id="48MLGOUjKtrmcHyPgKex-17" value="show question content&lt;div&gt;&amp;lt;Question&amp;gt;&lt;/div&gt;" style="rounded=1;whiteSpace=wrap;html=1;" vertex="1" parent="1">
          <mxGeometry x="1355" y="706" width="120" height="60" as="geometry" />
        </mxCell>
        <mxCell id="48MLGOUjKtrmcHyPgKex-21" value="" style="rhombus;whiteSpace=wrap;html=1;" vertex="1" parent="1">
          <mxGeometry x="1000" y="1036" width="830" height="567" as="geometry" />
        </mxCell>
        <mxCell id="48MLGOUjKtrmcHyPgKex-22" value="" style="edgeStyle=orthogonalEdgeStyle;rounded=0;orthogonalLoop=1;jettySize=auto;html=1;" edge="1" parent="1" source="48MLGOUjKtrmcHyPgKex-23" target="48MLGOUjKtrmcHyPgKex-25">
          <mxGeometry relative="1" as="geometry" />
        </mxCell>
        <mxCell id="48MLGOUjKtrmcHyPgKex-23" value="player answers&lt;div&gt;&amp;lt;String&amp;gt;&lt;/div&gt;" style="shape=parallelogram;perimeter=parallelogramPerimeter;whiteSpace=wrap;html=1;fixedSize=1;" vertex="1" parent="1">
          <mxGeometry x="1355" y="1100" width="120" height="60" as="geometry" />
        </mxCell>
        <mxCell id="48MLGOUjKtrmcHyPgKex-24" style="edgeStyle=orthogonalEdgeStyle;rounded=0;orthogonalLoop=1;jettySize=auto;html=1;exitX=0.5;exitY=1;exitDx=0;exitDy=0;entryX=0.5;entryY=0;entryDx=0;entryDy=0;" edge="1" parent="1" source="48MLGOUjKtrmcHyPgKex-25" target="48MLGOUjKtrmcHyPgKex-30">
          <mxGeometry relative="1" as="geometry" />
        </mxCell>
        <mxCell id="48MLGOUjKtrmcHyPgKex-25" value="show answer to admin and let him decide correctness&lt;div&gt;&amp;lt;Question, String, Player&amp;gt;&lt;/div&gt;" style="rounded=1;whiteSpace=wrap;html=1;" vertex="1" parent="1">
          <mxGeometry x="1340" y="1190" width="150" height="60" as="geometry" />
        </mxCell>
        <mxCell id="48MLGOUjKtrmcHyPgKex-26" value="" style="edgeStyle=orthogonalEdgeStyle;rounded=0;orthogonalLoop=1;jettySize=auto;html=1;" edge="1" parent="1" source="48MLGOUjKtrmcHyPgKex-27" target="48MLGOUjKtrmcHyPgKex-33">
          <mxGeometry relative="1" as="geometry" />
        </mxCell>
        <mxCell id="48MLGOUjKtrmcHyPgKex-259" style="edgeStyle=orthogonalEdgeStyle;rounded=0;orthogonalLoop=1;jettySize=auto;html=1;exitX=0;exitY=0.5;exitDx=0;exitDy=0;entryX=1;entryY=0.5;entryDx=0;entryDy=0;" edge="1" parent="1" source="48MLGOUjKtrmcHyPgKex-27" target="48MLGOUjKtrmcHyPgKex-256">
          <mxGeometry relative="1" as="geometry" />
        </mxCell>
        <mxCell id="48MLGOUjKtrmcHyPgKex-27" value="presses correct answer" style="shape=hexagon;perimeter=hexagonPerimeter2;whiteSpace=wrap;html=1;fixedSize=1;" vertex="1" parent="1">
          <mxGeometry x="1210" y="1330" width="120" height="80" as="geometry" />
        </mxCell>
        <mxCell id="48MLGOUjKtrmcHyPgKex-28" style="edgeStyle=orthogonalEdgeStyle;rounded=0;orthogonalLoop=1;jettySize=auto;html=1;exitX=0;exitY=0.5;exitDx=0;exitDy=0;entryX=0.5;entryY=0;entryDx=0;entryDy=0;" edge="1" parent="1" source="48MLGOUjKtrmcHyPgKex-30" target="48MLGOUjKtrmcHyPgKex-27">
          <mxGeometry relative="1" as="geometry" />
        </mxCell>
        <mxCell id="48MLGOUjKtrmcHyPgKex-29" style="edgeStyle=orthogonalEdgeStyle;rounded=0;orthogonalLoop=1;jettySize=auto;html=1;exitX=1;exitY=0.5;exitDx=0;exitDy=0;entryX=0.5;entryY=0;entryDx=0;entryDy=0;" edge="1" parent="1" source="48MLGOUjKtrmcHyPgKex-30" target="48MLGOUjKtrmcHyPgKex-32">
          <mxGeometry relative="1" as="geometry" />
        </mxCell>
        <mxCell id="48MLGOUjKtrmcHyPgKex-30" value="" style="rhombus;whiteSpace=wrap;html=1;" vertex="1" parent="1">
          <mxGeometry x="1375" y="1270" width="80" height="80" as="geometry" />
        </mxCell>
        <mxCell id="48MLGOUjKtrmcHyPgKex-251" style="edgeStyle=orthogonalEdgeStyle;rounded=0;orthogonalLoop=1;jettySize=auto;html=1;exitX=0.5;exitY=1;exitDx=0;exitDy=0;entryX=0.5;entryY=0;entryDx=0;entryDy=0;" edge="1" parent="1" source="48MLGOUjKtrmcHyPgKex-32" target="48MLGOUjKtrmcHyPgKex-250">
          <mxGeometry relative="1" as="geometry" />
        </mxCell>
        <mxCell id="48MLGOUjKtrmcHyPgKex-32" value="presses wrong answer" style="shape=hexagon;perimeter=hexagonPerimeter2;whiteSpace=wrap;html=1;fixedSize=1;" vertex="1" parent="1">
          <mxGeometry x="1500" y="1330" width="120" height="80" as="geometry" />
        </mxCell>
        <mxCell id="48MLGOUjKtrmcHyPgKex-33" value="" style="shape=waypoint;sketch=0;size=6;pointerEvents=1;points=[];fillColor=default;resizable=0;rotatable=0;perimeter=centerPerimeter;snapToPoint=1;" vertex="1" parent="1">
          <mxGeometry x="1405" y="1670" width="20" height="20" as="geometry" />
        </mxCell>
        <mxCell id="48MLGOUjKtrmcHyPgKex-34" value="" style="shape=process;whiteSpace=wrap;html=1;backgroundOutline=1;" vertex="1" parent="1">
          <mxGeometry x="2125" y="-450" width="120" height="60" as="geometry" />
        </mxCell>
        <mxCell id="48MLGOUjKtrmcHyPgKex-35" value="auto event" style="text;html=1;align=center;verticalAlign=middle;resizable=0;points=[];autosize=1;strokeColor=none;fillColor=none;" vertex="1" parent="1">
          <mxGeometry x="2120" y="-480" width="80" height="30" as="geometry" />
        </mxCell>
        <mxCell id="48MLGOUjKtrmcHyPgKex-41" value="" style="edgeStyle=orthogonalEdgeStyle;rounded=0;orthogonalLoop=1;jettySize=auto;html=1;entryX=1.083;entryY=0.867;entryDx=0;entryDy=0;entryPerimeter=0;" edge="1" parent="1" source="48MLGOUjKtrmcHyPgKex-36" target="48MLGOUjKtrmcHyPgKex-33">
          <mxGeometry relative="1" as="geometry">
            <mxPoint x="1520" y="966" as="targetPoint" />
            <Array as="points">
              <mxPoint x="1860" y="866" />
              <mxPoint x="1860" y="1680" />
            </Array>
          </mxGeometry>
        </mxCell>
        <mxCell id="48MLGOUjKtrmcHyPgKex-36" value="question time out" style="shape=process;whiteSpace=wrap;html=1;backgroundOutline=1;" vertex="1" parent="1">
          <mxGeometry x="1460" y="836" width="120" height="60" as="geometry" />
        </mxCell>
        <mxCell id="48MLGOUjKtrmcHyPgKex-137" style="edgeStyle=orthogonalEdgeStyle;rounded=0;orthogonalLoop=1;jettySize=auto;html=1;exitX=0.5;exitY=1;exitDx=0;exitDy=0;" edge="1" parent="1" source="48MLGOUjKtrmcHyPgKex-42" target="48MLGOUjKtrmcHyPgKex-135">
          <mxGeometry relative="1" as="geometry" />
        </mxCell>
        <mxCell id="48MLGOUjKtrmcHyPgKex-42" value="" style="rounded=1;whiteSpace=wrap;html=1;" vertex="1" parent="1">
          <mxGeometry x="2260" y="630" width="1080" height="1100" as="geometry" />
        </mxCell>
        <mxCell id="48MLGOUjKtrmcHyPgKex-43" value="stake question" style="text;html=1;align=center;verticalAlign=middle;resizable=0;points=[];autosize=1;strokeColor=none;fillColor=none;" vertex="1" parent="1">
          <mxGeometry x="2335" y="670" width="100" height="30" as="geometry" />
        </mxCell>
        <mxCell id="48MLGOUjKtrmcHyPgKex-124" style="edgeStyle=orthogonalEdgeStyle;rounded=0;orthogonalLoop=1;jettySize=auto;html=1;exitX=0.25;exitY=1;exitDx=0;exitDy=0;entryX=0.25;entryY=0;entryDx=0;entryDy=0;" edge="1" parent="1" source="48MLGOUjKtrmcHyPgKex-46" target="48MLGOUjKtrmcHyPgKex-63">
          <mxGeometry relative="1" as="geometry" />
        </mxCell>
        <mxCell id="48MLGOUjKtrmcHyPgKex-46" value="current player sets stake or pass" style="rounded=1;whiteSpace=wrap;html=1;" vertex="1" parent="1">
          <mxGeometry x="2725" y="700" width="120" height="60" as="geometry" />
        </mxCell>
        <mxCell id="48MLGOUjKtrmcHyPgKex-47" value="" style="rhombus;whiteSpace=wrap;html=1;" vertex="1" parent="1">
          <mxGeometry x="2370" y="1030" width="830" height="567" as="geometry" />
        </mxCell>
        <mxCell id="48MLGOUjKtrmcHyPgKex-48" value="" style="edgeStyle=orthogonalEdgeStyle;rounded=0;orthogonalLoop=1;jettySize=auto;html=1;exitX=0.5;exitY=1;exitDx=0;exitDy=0;" edge="1" parent="1" source="48MLGOUjKtrmcHyPgKex-67" target="48MLGOUjKtrmcHyPgKex-51">
          <mxGeometry relative="1" as="geometry">
            <mxPoint x="2784.999999999999" y="1173" as="sourcePoint" />
          </mxGeometry>
        </mxCell>
        <mxCell id="48MLGOUjKtrmcHyPgKex-50" style="edgeStyle=orthogonalEdgeStyle;rounded=0;orthogonalLoop=1;jettySize=auto;html=1;exitX=0.5;exitY=1;exitDx=0;exitDy=0;entryX=0.5;entryY=0;entryDx=0;entryDy=0;" edge="1" parent="1" source="48MLGOUjKtrmcHyPgKex-51" target="48MLGOUjKtrmcHyPgKex-56">
          <mxGeometry relative="1" as="geometry" />
        </mxCell>
        <mxCell id="48MLGOUjKtrmcHyPgKex-51" value="show answer to admin and let him decide correctness" style="rounded=1;whiteSpace=wrap;html=1;" vertex="1" parent="1">
          <mxGeometry x="2725" y="1203" width="120" height="60" as="geometry" />
        </mxCell>
        <mxCell id="48MLGOUjKtrmcHyPgKex-69" style="edgeStyle=orthogonalEdgeStyle;rounded=0;orthogonalLoop=1;jettySize=auto;html=1;exitX=0.5;exitY=1;exitDx=0;exitDy=0;" edge="1" parent="1" source="48MLGOUjKtrmcHyPgKex-53" target="48MLGOUjKtrmcHyPgKex-59">
          <mxGeometry relative="1" as="geometry" />
        </mxCell>
        <mxCell id="48MLGOUjKtrmcHyPgKex-53" value="presses correct answer" style="shape=hexagon;perimeter=hexagonPerimeter2;whiteSpace=wrap;html=1;fixedSize=1;" vertex="1" parent="1">
          <mxGeometry x="2580" y="1343" width="120" height="80" as="geometry" />
        </mxCell>
        <mxCell id="48MLGOUjKtrmcHyPgKex-54" style="edgeStyle=orthogonalEdgeStyle;rounded=0;orthogonalLoop=1;jettySize=auto;html=1;exitX=0;exitY=0.5;exitDx=0;exitDy=0;entryX=0.5;entryY=0;entryDx=0;entryDy=0;" edge="1" parent="1" source="48MLGOUjKtrmcHyPgKex-56" target="48MLGOUjKtrmcHyPgKex-53">
          <mxGeometry relative="1" as="geometry" />
        </mxCell>
        <mxCell id="48MLGOUjKtrmcHyPgKex-55" style="edgeStyle=orthogonalEdgeStyle;rounded=0;orthogonalLoop=1;jettySize=auto;html=1;exitX=1;exitY=0.5;exitDx=0;exitDy=0;entryX=0.5;entryY=0;entryDx=0;entryDy=0;" edge="1" parent="1" source="48MLGOUjKtrmcHyPgKex-56" target="48MLGOUjKtrmcHyPgKex-58">
          <mxGeometry relative="1" as="geometry" />
        </mxCell>
        <mxCell id="48MLGOUjKtrmcHyPgKex-56" value="" style="rhombus;whiteSpace=wrap;html=1;" vertex="1" parent="1">
          <mxGeometry x="2745" y="1283" width="80" height="80" as="geometry" />
        </mxCell>
        <mxCell id="48MLGOUjKtrmcHyPgKex-58" value="presses wrong answer" style="shape=hexagon;perimeter=hexagonPerimeter2;whiteSpace=wrap;html=1;fixedSize=1;" vertex="1" parent="1">
          <mxGeometry x="2870" y="1343" width="120" height="80" as="geometry" />
        </mxCell>
        <mxCell id="48MLGOUjKtrmcHyPgKex-59" value="" style="shape=waypoint;sketch=0;size=6;pointerEvents=1;points=[];fillColor=default;resizable=0;rotatable=0;perimeter=centerPerimeter;snapToPoint=1;" vertex="1" parent="1">
          <mxGeometry x="2770" y="1486" width="20" height="20" as="geometry" />
        </mxCell>
        <mxCell id="48MLGOUjKtrmcHyPgKex-123" style="edgeStyle=orthogonalEdgeStyle;rounded=0;orthogonalLoop=1;jettySize=auto;html=1;exitX=0.5;exitY=1;exitDx=0;exitDy=0;entryX=0.5;entryY=0;entryDx=0;entryDy=0;" edge="1" parent="1" source="48MLGOUjKtrmcHyPgKex-63" target="48MLGOUjKtrmcHyPgKex-65">
          <mxGeometry relative="1" as="geometry" />
        </mxCell>
        <mxCell id="48MLGOUjKtrmcHyPgKex-125" style="edgeStyle=orthogonalEdgeStyle;rounded=0;orthogonalLoop=1;jettySize=auto;html=1;exitX=0.75;exitY=0;exitDx=0;exitDy=0;entryX=0.75;entryY=1;entryDx=0;entryDy=0;" edge="1" parent="1" source="48MLGOUjKtrmcHyPgKex-63" target="48MLGOUjKtrmcHyPgKex-46">
          <mxGeometry relative="1" as="geometry" />
        </mxCell>
        <mxCell id="48MLGOUjKtrmcHyPgKex-63" value="(every with non 0 points) player sets stake (or pass)" style="shape=parallelogram;perimeter=parallelogramPerimeter;whiteSpace=wrap;html=1;fixedSize=1;" vertex="1" parent="1">
          <mxGeometry x="2675" y="836" width="220" height="60" as="geometry" />
        </mxCell>
        <mxCell id="48MLGOUjKtrmcHyPgKex-68" style="edgeStyle=orthogonalEdgeStyle;rounded=0;orthogonalLoop=1;jettySize=auto;html=1;exitX=0.5;exitY=1;exitDx=0;exitDy=0;entryX=0.5;entryY=0;entryDx=0;entryDy=0;" edge="1" parent="1" source="48MLGOUjKtrmcHyPgKex-65" target="48MLGOUjKtrmcHyPgKex-67">
          <mxGeometry relative="1" as="geometry" />
        </mxCell>
        <mxCell id="48MLGOUjKtrmcHyPgKex-65" value="show question" style="rounded=1;whiteSpace=wrap;html=1;" vertex="1" parent="1">
          <mxGeometry x="2725" y="950" width="120" height="60" as="geometry" />
        </mxCell>
        <mxCell id="48MLGOUjKtrmcHyPgKex-67" value="question time out" style="shape=process;whiteSpace=wrap;html=1;backgroundOutline=1;" vertex="1" parent="1">
          <mxGeometry x="2725" y="1106" width="120" height="60" as="geometry" />
        </mxCell>
        <mxCell id="48MLGOUjKtrmcHyPgKex-70" style="edgeStyle=orthogonalEdgeStyle;rounded=0;orthogonalLoop=1;jettySize=auto;html=1;exitX=0.5;exitY=1;exitDx=0;exitDy=0;entryX=1.013;entryY=0.109;entryDx=0;entryDy=0;entryPerimeter=0;" edge="1" parent="1" source="48MLGOUjKtrmcHyPgKex-58" target="48MLGOUjKtrmcHyPgKex-59">
          <mxGeometry relative="1" as="geometry" />
        </mxCell>
        <mxCell id="48MLGOUjKtrmcHyPgKex-138" style="edgeStyle=orthogonalEdgeStyle;rounded=0;orthogonalLoop=1;jettySize=auto;html=1;exitX=0.5;exitY=1;exitDx=0;exitDy=0;" edge="1" parent="1" source="48MLGOUjKtrmcHyPgKex-97" target="48MLGOUjKtrmcHyPgKex-135">
          <mxGeometry relative="1" as="geometry">
            <mxPoint x="1510" y="2370" as="targetPoint" />
          </mxGeometry>
        </mxCell>
        <mxCell id="48MLGOUjKtrmcHyPgKex-97" value="" style="rounded=1;whiteSpace=wrap;html=1;" vertex="1" parent="1">
          <mxGeometry x="3640" y="639" width="1080" height="1100" as="geometry" />
        </mxCell>
        <mxCell id="48MLGOUjKtrmcHyPgKex-98" value="secret question" style="text;html=1;align=center;verticalAlign=middle;resizable=0;points=[];autosize=1;strokeColor=none;fillColor=none;" vertex="1" parent="1">
          <mxGeometry x="3715" y="679" width="100" height="30" as="geometry" />
        </mxCell>
        <mxCell id="48MLGOUjKtrmcHyPgKex-126" value="" style="edgeStyle=orthogonalEdgeStyle;rounded=0;orthogonalLoop=1;jettySize=auto;html=1;" edge="1" parent="1" source="48MLGOUjKtrmcHyPgKex-101" target="48MLGOUjKtrmcHyPgKex-117">
          <mxGeometry relative="1" as="geometry" />
        </mxCell>
        <mxCell id="48MLGOUjKtrmcHyPgKex-101" value="let player choose the one who answers (including or not himself)" style="rounded=1;whiteSpace=wrap;html=1;" vertex="1" parent="1">
          <mxGeometry x="4105" y="709" width="120" height="60" as="geometry" />
        </mxCell>
        <mxCell id="48MLGOUjKtrmcHyPgKex-102" value="" style="rhombus;whiteSpace=wrap;html=1;" vertex="1" parent="1">
          <mxGeometry x="3750" y="1039" width="830" height="567" as="geometry" />
        </mxCell>
        <mxCell id="48MLGOUjKtrmcHyPgKex-103" value="" style="edgeStyle=orthogonalEdgeStyle;rounded=0;orthogonalLoop=1;jettySize=auto;html=1;exitX=0.5;exitY=1;exitDx=0;exitDy=0;" edge="1" parent="1" source="48MLGOUjKtrmcHyPgKex-121" target="48MLGOUjKtrmcHyPgKex-105">
          <mxGeometry relative="1" as="geometry">
            <mxPoint x="4164.999999999999" y="1182" as="sourcePoint" />
          </mxGeometry>
        </mxCell>
        <mxCell id="48MLGOUjKtrmcHyPgKex-104" style="edgeStyle=orthogonalEdgeStyle;rounded=0;orthogonalLoop=1;jettySize=auto;html=1;exitX=0.5;exitY=1;exitDx=0;exitDy=0;entryX=0.5;entryY=0;entryDx=0;entryDy=0;" edge="1" parent="1" source="48MLGOUjKtrmcHyPgKex-105" target="48MLGOUjKtrmcHyPgKex-110">
          <mxGeometry relative="1" as="geometry" />
        </mxCell>
        <mxCell id="48MLGOUjKtrmcHyPgKex-105" value="show answer to admin and let him decide correctness" style="rounded=1;whiteSpace=wrap;html=1;" vertex="1" parent="1">
          <mxGeometry x="4105" y="1212" width="120" height="60" as="geometry" />
        </mxCell>
        <mxCell id="48MLGOUjKtrmcHyPgKex-106" style="edgeStyle=orthogonalEdgeStyle;rounded=0;orthogonalLoop=1;jettySize=auto;html=1;exitX=0.5;exitY=1;exitDx=0;exitDy=0;" edge="1" parent="1" source="48MLGOUjKtrmcHyPgKex-107" target="48MLGOUjKtrmcHyPgKex-112">
          <mxGeometry relative="1" as="geometry" />
        </mxCell>
        <mxCell id="48MLGOUjKtrmcHyPgKex-107" value="presses correct answer" style="shape=hexagon;perimeter=hexagonPerimeter2;whiteSpace=wrap;html=1;fixedSize=1;" vertex="1" parent="1">
          <mxGeometry x="3960" y="1352" width="120" height="80" as="geometry" />
        </mxCell>
        <mxCell id="48MLGOUjKtrmcHyPgKex-108" style="edgeStyle=orthogonalEdgeStyle;rounded=0;orthogonalLoop=1;jettySize=auto;html=1;exitX=0;exitY=0.5;exitDx=0;exitDy=0;entryX=0.5;entryY=0;entryDx=0;entryDy=0;" edge="1" parent="1" source="48MLGOUjKtrmcHyPgKex-110" target="48MLGOUjKtrmcHyPgKex-107">
          <mxGeometry relative="1" as="geometry" />
        </mxCell>
        <mxCell id="48MLGOUjKtrmcHyPgKex-109" style="edgeStyle=orthogonalEdgeStyle;rounded=0;orthogonalLoop=1;jettySize=auto;html=1;exitX=1;exitY=0.5;exitDx=0;exitDy=0;entryX=0.5;entryY=0;entryDx=0;entryDy=0;" edge="1" parent="1" source="48MLGOUjKtrmcHyPgKex-110" target="48MLGOUjKtrmcHyPgKex-111">
          <mxGeometry relative="1" as="geometry" />
        </mxCell>
        <mxCell id="48MLGOUjKtrmcHyPgKex-110" value="" style="rhombus;whiteSpace=wrap;html=1;" vertex="1" parent="1">
          <mxGeometry x="4125" y="1292" width="80" height="80" as="geometry" />
        </mxCell>
        <mxCell id="48MLGOUjKtrmcHyPgKex-111" value="presses wrong answer" style="shape=hexagon;perimeter=hexagonPerimeter2;whiteSpace=wrap;html=1;fixedSize=1;" vertex="1" parent="1">
          <mxGeometry x="4250" y="1352" width="120" height="80" as="geometry" />
        </mxCell>
        <mxCell id="48MLGOUjKtrmcHyPgKex-112" value="" style="shape=waypoint;sketch=0;size=6;pointerEvents=1;points=[];fillColor=default;resizable=0;rotatable=0;perimeter=centerPerimeter;snapToPoint=1;" vertex="1" parent="1">
          <mxGeometry x="4150" y="1495" width="20" height="20" as="geometry" />
        </mxCell>
        <mxCell id="48MLGOUjKtrmcHyPgKex-127" value="" style="edgeStyle=orthogonalEdgeStyle;rounded=0;orthogonalLoop=1;jettySize=auto;html=1;" edge="1" parent="1" source="48MLGOUjKtrmcHyPgKex-117" target="48MLGOUjKtrmcHyPgKex-120">
          <mxGeometry relative="1" as="geometry" />
        </mxCell>
        <mxCell id="48MLGOUjKtrmcHyPgKex-266" value="" style="edgeStyle=orthogonalEdgeStyle;rounded=0;orthogonalLoop=1;jettySize=auto;html=1;" edge="1" parent="1" source="48MLGOUjKtrmcHyPgKex-117" target="48MLGOUjKtrmcHyPgKex-265">
          <mxGeometry relative="1" as="geometry" />
        </mxCell>
        <mxCell id="48MLGOUjKtrmcHyPgKex-117" value="current player chooses player to answer" style="shape=parallelogram;perimeter=parallelogramPerimeter;whiteSpace=wrap;html=1;fixedSize=1;" vertex="1" parent="1">
          <mxGeometry x="4055" y="836" width="220" height="60" as="geometry" />
        </mxCell>
        <mxCell id="48MLGOUjKtrmcHyPgKex-119" style="edgeStyle=orthogonalEdgeStyle;rounded=0;orthogonalLoop=1;jettySize=auto;html=1;exitX=0.5;exitY=1;exitDx=0;exitDy=0;entryX=0.5;entryY=0;entryDx=0;entryDy=0;" edge="1" parent="1" source="48MLGOUjKtrmcHyPgKex-120" target="48MLGOUjKtrmcHyPgKex-121">
          <mxGeometry relative="1" as="geometry" />
        </mxCell>
        <mxCell id="48MLGOUjKtrmcHyPgKex-120" value="show question" style="rounded=1;whiteSpace=wrap;html=1;" vertex="1" parent="1">
          <mxGeometry x="4105" y="959" width="120" height="60" as="geometry" />
        </mxCell>
        <mxCell id="48MLGOUjKtrmcHyPgKex-121" value="question time out" style="shape=process;whiteSpace=wrap;html=1;backgroundOutline=1;" vertex="1" parent="1">
          <mxGeometry x="4105" y="1115" width="120" height="60" as="geometry" />
        </mxCell>
        <mxCell id="48MLGOUjKtrmcHyPgKex-122" style="edgeStyle=orthogonalEdgeStyle;rounded=0;orthogonalLoop=1;jettySize=auto;html=1;exitX=0.5;exitY=1;exitDx=0;exitDy=0;entryX=1.013;entryY=0.109;entryDx=0;entryDy=0;entryPerimeter=0;" edge="1" parent="1" source="48MLGOUjKtrmcHyPgKex-111" target="48MLGOUjKtrmcHyPgKex-112">
          <mxGeometry relative="1" as="geometry" />
        </mxCell>
        <mxCell id="48MLGOUjKtrmcHyPgKex-132" style="edgeStyle=orthogonalEdgeStyle;rounded=0;orthogonalLoop=1;jettySize=auto;html=1;exitX=0;exitY=1;exitDx=0;exitDy=0;entryX=0.5;entryY=0;entryDx=0;entryDy=0;" edge="1" parent="1" source="48MLGOUjKtrmcHyPgKex-128" target="48MLGOUjKtrmcHyPgKex-10">
          <mxGeometry relative="1" as="geometry" />
        </mxCell>
        <mxCell id="48MLGOUjKtrmcHyPgKex-133" style="edgeStyle=orthogonalEdgeStyle;rounded=0;orthogonalLoop=1;jettySize=auto;html=1;exitX=0.5;exitY=1;exitDx=0;exitDy=0;entryX=0.5;entryY=0;entryDx=0;entryDy=0;" edge="1" parent="1" source="48MLGOUjKtrmcHyPgKex-128" target="48MLGOUjKtrmcHyPgKex-42">
          <mxGeometry relative="1" as="geometry" />
        </mxCell>
        <mxCell id="48MLGOUjKtrmcHyPgKex-134" style="edgeStyle=orthogonalEdgeStyle;rounded=0;orthogonalLoop=1;jettySize=auto;html=1;exitX=1;exitY=1;exitDx=0;exitDy=0;entryX=0.5;entryY=0;entryDx=0;entryDy=0;" edge="1" parent="1" source="48MLGOUjKtrmcHyPgKex-128" target="48MLGOUjKtrmcHyPgKex-97">
          <mxGeometry relative="1" as="geometry" />
        </mxCell>
        <mxCell id="48MLGOUjKtrmcHyPgKex-263" style="edgeStyle=orthogonalEdgeStyle;rounded=0;orthogonalLoop=1;jettySize=auto;html=1;exitX=1;exitY=0.5;exitDx=0;exitDy=0;" edge="1" parent="1" source="48MLGOUjKtrmcHyPgKex-128" target="48MLGOUjKtrmcHyPgKex-228">
          <mxGeometry relative="1" as="geometry" />
        </mxCell>
        <mxCell id="48MLGOUjKtrmcHyPgKex-128" value="question type" style="rhombus;whiteSpace=wrap;html=1;" vertex="1" parent="1">
          <mxGeometry x="2720" y="200" width="160" height="80" as="geometry" />
        </mxCell>
        <mxCell id="48MLGOUjKtrmcHyPgKex-220" value="" style="edgeStyle=orthogonalEdgeStyle;rounded=0;orthogonalLoop=1;jettySize=auto;html=1;entryX=0.5;entryY=0;entryDx=0;entryDy=0;" edge="1" parent="1" source="48MLGOUjKtrmcHyPgKex-223" target="eBi0IiiwcB5EqKBCC25g-17">
          <mxGeometry relative="1" as="geometry">
            <mxPoint x="290" y="1240" as="targetPoint" />
            <Array as="points">
              <mxPoint x="295" y="-115" />
            </Array>
          </mxGeometry>
        </mxCell>
        <mxCell id="48MLGOUjKtrmcHyPgKex-135" value="" style="shape=waypoint;sketch=0;size=6;pointerEvents=1;points=[];fillColor=default;resizable=0;rotatable=0;perimeter=centerPerimeter;snapToPoint=1;rounded=1;" vertex="1" parent="1">
          <mxGeometry x="1420" y="2356" width="20" height="20" as="geometry" />
        </mxCell>
        <mxCell id="48MLGOUjKtrmcHyPgKex-141" value="" style="rounded=1;whiteSpace=wrap;html=1;" vertex="1" parent="1">
          <mxGeometry x="-320" y="90" width="260" height="790" as="geometry" />
        </mxCell>
        <mxCell id="48MLGOUjKtrmcHyPgKex-146" value="" style="edgeStyle=orthogonalEdgeStyle;rounded=0;orthogonalLoop=1;jettySize=auto;html=1;" edge="1" parent="1" source="48MLGOUjKtrmcHyPgKex-142" target="48MLGOUjKtrmcHyPgKex-145">
          <mxGeometry relative="1" as="geometry" />
        </mxCell>
        <mxCell id="48MLGOUjKtrmcHyPgKex-142" value="configure game" style="rounded=1;whiteSpace=wrap;html=1;" vertex="1" parent="1">
          <mxGeometry x="-250" y="100" width="120" height="60" as="geometry" />
        </mxCell>
        <mxCell id="48MLGOUjKtrmcHyPgKex-144" value="" style="edgeStyle=orthogonalEdgeStyle;rounded=0;orthogonalLoop=1;jettySize=auto;html=1;" edge="1" parent="1" source="48MLGOUjKtrmcHyPgKex-143" target="48MLGOUjKtrmcHyPgKex-142">
          <mxGeometry relative="1" as="geometry" />
        </mxCell>
        <mxCell id="48MLGOUjKtrmcHyPgKex-143" value="" style="shape=waypoint;sketch=0;size=6;pointerEvents=1;points=[];fillColor=default;resizable=0;rotatable=0;perimeter=centerPerimeter;snapToPoint=1;rounded=1;" vertex="1" parent="1">
          <mxGeometry x="-200" y="45" width="20" height="20" as="geometry" />
        </mxCell>
        <mxCell id="48MLGOUjKtrmcHyPgKex-148" value="" style="edgeStyle=orthogonalEdgeStyle;rounded=0;orthogonalLoop=1;jettySize=auto;html=1;" edge="1" parent="1" source="48MLGOUjKtrmcHyPgKex-145" target="48MLGOUjKtrmcHyPgKex-147">
          <mxGeometry relative="1" as="geometry" />
        </mxCell>
        <mxCell id="48MLGOUjKtrmcHyPgKex-145" value="choose pack" style="shape=hexagon;perimeter=hexagonPerimeter2;whiteSpace=wrap;html=1;fixedSize=1;" vertex="1" parent="1">
          <mxGeometry x="-250" y="200" width="120" height="80" as="geometry" />
        </mxCell>
        <mxCell id="48MLGOUjKtrmcHyPgKex-150" value="" style="edgeStyle=orthogonalEdgeStyle;rounded=0;orthogonalLoop=1;jettySize=auto;html=1;" edge="1" parent="1" source="48MLGOUjKtrmcHyPgKex-147" target="48MLGOUjKtrmcHyPgKex-149">
          <mxGeometry relative="1" as="geometry" />
        </mxCell>
        <mxCell id="48MLGOUjKtrmcHyPgKex-147" value="add players" style="shape=hexagon;perimeter=hexagonPerimeter2;whiteSpace=wrap;html=1;fixedSize=1;" vertex="1" parent="1">
          <mxGeometry x="-250" y="320" width="120" height="80" as="geometry" />
        </mxCell>
        <mxCell id="48MLGOUjKtrmcHyPgKex-152" value="" style="edgeStyle=orthogonalEdgeStyle;rounded=0;orthogonalLoop=1;jettySize=auto;html=1;" edge="1" parent="1" source="48MLGOUjKtrmcHyPgKex-149" target="48MLGOUjKtrmcHyPgKex-151">
          <mxGeometry relative="1" as="geometry" />
        </mxCell>
        <mxCell id="48MLGOUjKtrmcHyPgKex-149" value="connect devise" style="shape=parallelogram;perimeter=parallelogramPerimeter;whiteSpace=wrap;html=1;fixedSize=1;" vertex="1" parent="1">
          <mxGeometry x="-250" y="440" width="120" height="60" as="geometry" />
        </mxCell>
        <mxCell id="48MLGOUjKtrmcHyPgKex-153" style="edgeStyle=orthogonalEdgeStyle;rounded=0;orthogonalLoop=1;jettySize=auto;html=1;exitX=0.5;exitY=1;exitDx=0;exitDy=0;entryX=0.5;entryY=0;entryDx=0;entryDy=0;" edge="1" parent="1" source="48MLGOUjKtrmcHyPgKex-151" target="48MLGOUjKtrmcHyPgKex-216">
          <mxGeometry relative="1" as="geometry">
            <mxPoint x="70.00000000000023" y="360" as="targetPoint" />
            <Array as="points">
              <mxPoint x="-190" y="645" />
              <mxPoint x="40" y="645" />
              <mxPoint x="40" y="-960" />
              <mxPoint x="620" y="-960" />
            </Array>
          </mxGeometry>
        </mxCell>
        <mxCell id="48MLGOUjKtrmcHyPgKex-151" value="start game" style="shape=hexagon;perimeter=hexagonPerimeter2;whiteSpace=wrap;html=1;fixedSize=1;" vertex="1" parent="1">
          <mxGeometry x="-250" y="544.5" width="120" height="80" as="geometry" />
        </mxCell>
        <mxCell id="48MLGOUjKtrmcHyPgKex-155" style="edgeStyle=orthogonalEdgeStyle;rounded=0;orthogonalLoop=1;jettySize=auto;html=1;exitX=0;exitY=1;exitDx=0;exitDy=0;entryX=0.5;entryY=0;entryDx=0;entryDy=0;" edge="1" parent="1" source="48MLGOUjKtrmcHyPgKex-154" target="eBi0IiiwcB5EqKBCC25g-1">
          <mxGeometry relative="1" as="geometry" />
        </mxCell>
        <mxCell id="48MLGOUjKtrmcHyPgKex-156" value="yes" style="edgeLabel;html=1;align=center;verticalAlign=middle;resizable=0;points=[];" vertex="1" connectable="0" parent="48MLGOUjKtrmcHyPgKex-155">
          <mxGeometry x="-0.1136" y="1" relative="1" as="geometry">
            <mxPoint as="offset" />
          </mxGeometry>
        </mxCell>
        <mxCell id="48MLGOUjKtrmcHyPgKex-226" style="edgeStyle=orthogonalEdgeStyle;rounded=0;orthogonalLoop=1;jettySize=auto;html=1;exitX=1;exitY=1;exitDx=0;exitDy=0;entryX=0.5;entryY=0;entryDx=0;entryDy=0;" edge="1" parent="1" source="48MLGOUjKtrmcHyPgKex-154" target="eBi0IiiwcB5EqKBCC25g-5">
          <mxGeometry relative="1" as="geometry" />
        </mxCell>
        <mxCell id="48MLGOUjKtrmcHyPgKex-227" value="no" style="edgeLabel;html=1;align=center;verticalAlign=middle;resizable=0;points=[];" vertex="1" connectable="0" parent="48MLGOUjKtrmcHyPgKex-226">
          <mxGeometry x="-0.7006" y="1" relative="1" as="geometry">
            <mxPoint as="offset" />
          </mxGeometry>
        </mxCell>
        <mxCell id="48MLGOUjKtrmcHyPgKex-154" value="is there players with same min amount of points?" style="rhombus;whiteSpace=wrap;html=1;" vertex="1" parent="1">
          <mxGeometry x="145" y="-675" width="330" height="80" as="geometry" />
        </mxCell>
        <mxCell id="48MLGOUjKtrmcHyPgKex-159" value="show winner" style="rounded=1;whiteSpace=wrap;html=1;" vertex="1" parent="1">
          <mxGeometry x="-250" y="729" width="120" height="60" as="geometry" />
        </mxCell>
        <mxCell id="48MLGOUjKtrmcHyPgKex-161" value="simple round" style="text;html=1;align=center;verticalAlign=middle;resizable=0;points=[];autosize=1;strokeColor=none;fillColor=none;" vertex="1" parent="1">
          <mxGeometry x="145" y="-730" width="90" height="30" as="geometry" />
        </mxCell>
        <mxCell id="48MLGOUjKtrmcHyPgKex-270" style="edgeStyle=orthogonalEdgeStyle;rounded=0;orthogonalLoop=1;jettySize=auto;html=1;exitX=0.5;exitY=1;exitDx=0;exitDy=0;entryX=0.5;entryY=0;entryDx=0;entryDy=0;" edge="1" parent="1" source="48MLGOUjKtrmcHyPgKex-181" target="48MLGOUjKtrmcHyPgKex-268">
          <mxGeometry relative="1" as="geometry">
            <Array as="points">
              <mxPoint x="930" y="380" />
              <mxPoint x="505" y="380" />
            </Array>
          </mxGeometry>
        </mxCell>
        <mxCell id="48MLGOUjKtrmcHyPgKex-181" value="" style="rounded=1;whiteSpace=wrap;html=1;" vertex="1" parent="1">
          <mxGeometry x="730" y="-700" width="400" height="1000" as="geometry" />
        </mxCell>
        <mxCell id="48MLGOUjKtrmcHyPgKex-201" value="" style="edgeStyle=orthogonalEdgeStyle;rounded=0;orthogonalLoop=1;jettySize=auto;html=1;entryX=0.5;entryY=0;entryDx=0;entryDy=0;" edge="1" parent="1" source="48MLGOUjKtrmcHyPgKex-183" target="48MLGOUjKtrmcHyPgKex-202">
          <mxGeometry relative="1" as="geometry">
            <mxPoint x="932.5" y="-530" as="targetPoint" />
          </mxGeometry>
        </mxCell>
        <mxCell id="48MLGOUjKtrmcHyPgKex-183" value="players remove themes" style="rounded=1;whiteSpace=wrap;html=1;" vertex="1" parent="1">
          <mxGeometry x="872.5" y="-670" width="120" height="60" as="geometry" />
        </mxCell>
        <mxCell id="48MLGOUjKtrmcHyPgKex-184" style="edgeStyle=orthogonalEdgeStyle;rounded=0;orthogonalLoop=1;jettySize=auto;html=1;exitX=0.5;exitY=1;exitDx=0;exitDy=0;entryX=0.5;entryY=0;entryDx=0;entryDy=0;" edge="1" parent="1" source="48MLGOUjKtrmcHyPgKex-185" target="48MLGOUjKtrmcHyPgKex-195">
          <mxGeometry relative="1" as="geometry" />
        </mxCell>
        <mxCell id="48MLGOUjKtrmcHyPgKex-185" value="players make stakes" style="whiteSpace=wrap;html=1;rounded=1;" vertex="1" parent="1">
          <mxGeometry x="855" y="-350" width="120" height="60" as="geometry" />
        </mxCell>
        <mxCell id="48MLGOUjKtrmcHyPgKex-210" value="" style="edgeStyle=orthogonalEdgeStyle;rounded=0;orthogonalLoop=1;jettySize=auto;html=1;" edge="1" parent="1" source="48MLGOUjKtrmcHyPgKex-187" target="48MLGOUjKtrmcHyPgKex-209">
          <mxGeometry relative="1" as="geometry" />
        </mxCell>
        <mxCell id="48MLGOUjKtrmcHyPgKex-187" value="show question" style="whiteSpace=wrap;html=1;rounded=1;" vertex="1" parent="1">
          <mxGeometry x="855" y="-190" width="120" height="60" as="geometry" />
        </mxCell>
        <mxCell id="48MLGOUjKtrmcHyPgKex-191" value="" style="shape=waypoint;sketch=0;size=6;pointerEvents=1;points=[];fillColor=default;resizable=0;rotatable=0;perimeter=centerPerimeter;snapToPoint=1;rounded=1;" vertex="1" parent="1">
          <mxGeometry x="905" y="240" width="20" height="20" as="geometry" />
        </mxCell>
        <mxCell id="48MLGOUjKtrmcHyPgKex-194" style="edgeStyle=orthogonalEdgeStyle;rounded=0;orthogonalLoop=1;jettySize=auto;html=1;exitX=0.5;exitY=1;exitDx=0;exitDy=0;entryX=0.5;entryY=0;entryDx=0;entryDy=0;" edge="1" parent="1" source="48MLGOUjKtrmcHyPgKex-195" target="48MLGOUjKtrmcHyPgKex-187">
          <mxGeometry relative="1" as="geometry" />
        </mxCell>
        <mxCell id="48MLGOUjKtrmcHyPgKex-195" value="(all) player make stakes" style="shape=parallelogram;perimeter=parallelogramPerimeter;whiteSpace=wrap;html=1;fixedSize=1;" vertex="1" parent="1">
          <mxGeometry x="830" y="-270" width="170" height="60" as="geometry" />
        </mxCell>
        <mxCell id="48MLGOUjKtrmcHyPgKex-199" value="final round" style="text;html=1;align=center;verticalAlign=middle;resizable=0;points=[];autosize=1;strokeColor=none;fillColor=none;" vertex="1" parent="1">
          <mxGeometry x="770" y="-730" width="80" height="30" as="geometry" />
        </mxCell>
        <mxCell id="48MLGOUjKtrmcHyPgKex-205" value="" style="edgeStyle=orthogonalEdgeStyle;rounded=0;orthogonalLoop=1;jettySize=auto;html=1;" edge="1" parent="1" source="48MLGOUjKtrmcHyPgKex-202" target="48MLGOUjKtrmcHyPgKex-204">
          <mxGeometry relative="1" as="geometry" />
        </mxCell>
        <mxCell id="48MLGOUjKtrmcHyPgKex-202" value="player removes theme" style="shape=parallelogram;perimeter=parallelogramPerimeter;whiteSpace=wrap;html=1;fixedSize=1;" vertex="1" parent="1">
          <mxGeometry x="872.5" y="-565" width="120" height="60" as="geometry" />
        </mxCell>
        <mxCell id="48MLGOUjKtrmcHyPgKex-206" style="edgeStyle=orthogonalEdgeStyle;rounded=0;orthogonalLoop=1;jettySize=auto;html=1;exitX=0;exitY=0.5;exitDx=0;exitDy=0;entryX=0;entryY=0.5;entryDx=0;entryDy=0;" edge="1" parent="1" source="48MLGOUjKtrmcHyPgKex-204" target="48MLGOUjKtrmcHyPgKex-183">
          <mxGeometry relative="1" as="geometry" />
        </mxCell>
        <mxCell id="48MLGOUjKtrmcHyPgKex-207" value="no" style="edgeLabel;html=1;align=center;verticalAlign=middle;resizable=0;points=[];" vertex="1" connectable="0" parent="48MLGOUjKtrmcHyPgKex-206">
          <mxGeometry x="-0.9082" y="-1" relative="1" as="geometry">
            <mxPoint as="offset" />
          </mxGeometry>
        </mxCell>
        <mxCell id="48MLGOUjKtrmcHyPgKex-208" value="" style="edgeStyle=orthogonalEdgeStyle;rounded=0;orthogonalLoop=1;jettySize=auto;html=1;" edge="1" parent="1" source="48MLGOUjKtrmcHyPgKex-204" target="48MLGOUjKtrmcHyPgKex-185">
          <mxGeometry relative="1" as="geometry" />
        </mxCell>
        <mxCell id="48MLGOUjKtrmcHyPgKex-204" value="is last theme left?" style="rhombus;whiteSpace=wrap;html=1;" vertex="1" parent="1">
          <mxGeometry x="851" y="-480" width="163" height="80" as="geometry" />
        </mxCell>
        <mxCell id="48MLGOUjKtrmcHyPgKex-212" value="" style="edgeStyle=orthogonalEdgeStyle;rounded=0;orthogonalLoop=1;jettySize=auto;html=1;" edge="1" parent="1" source="48MLGOUjKtrmcHyPgKex-209" target="48MLGOUjKtrmcHyPgKex-211">
          <mxGeometry relative="1" as="geometry" />
        </mxCell>
        <mxCell id="48MLGOUjKtrmcHyPgKex-209" value="player(s) submit their answers" style="shape=parallelogram;perimeter=parallelogramPerimeter;whiteSpace=wrap;html=1;fixedSize=1;" vertex="1" parent="1">
          <mxGeometry x="805" y="-90" width="220" height="60" as="geometry" />
        </mxCell>
        <mxCell id="48MLGOUjKtrmcHyPgKex-214" value="" style="edgeStyle=orthogonalEdgeStyle;rounded=0;orthogonalLoop=1;jettySize=auto;html=1;" edge="1" parent="1" source="48MLGOUjKtrmcHyPgKex-211" target="48MLGOUjKtrmcHyPgKex-213">
          <mxGeometry relative="1" as="geometry" />
        </mxCell>
        <mxCell id="48MLGOUjKtrmcHyPgKex-211" value="show answers to admin" style="whiteSpace=wrap;html=1;rounded=1;" vertex="1" parent="1">
          <mxGeometry x="855" y="-1" width="120" height="60" as="geometry" />
        </mxCell>
        <mxCell id="48MLGOUjKtrmcHyPgKex-215" value="" style="edgeStyle=orthogonalEdgeStyle;rounded=0;orthogonalLoop=1;jettySize=auto;html=1;" edge="1" parent="1" source="48MLGOUjKtrmcHyPgKex-213" target="48MLGOUjKtrmcHyPgKex-191">
          <mxGeometry relative="1" as="geometry" />
        </mxCell>
        <mxCell id="48MLGOUjKtrmcHyPgKex-213" value="admin marks answer as correct or wrong" style="shape=hexagon;perimeter=hexagonPerimeter2;whiteSpace=wrap;html=1;fixedSize=1;" vertex="1" parent="1">
          <mxGeometry x="855" y="100" width="120" height="80" as="geometry" />
        </mxCell>
        <mxCell id="48MLGOUjKtrmcHyPgKex-217" style="edgeStyle=orthogonalEdgeStyle;rounded=0;orthogonalLoop=1;jettySize=auto;html=1;exitX=0;exitY=1;exitDx=0;exitDy=0;entryX=0.5;entryY=0;entryDx=0;entryDy=0;" edge="1" parent="1" source="48MLGOUjKtrmcHyPgKex-216" target="eBi0IiiwcB5EqKBCC25g-3">
          <mxGeometry relative="1" as="geometry" />
        </mxCell>
        <mxCell id="48MLGOUjKtrmcHyPgKex-218" style="edgeStyle=orthogonalEdgeStyle;rounded=0;orthogonalLoop=1;jettySize=auto;html=1;exitX=1;exitY=1;exitDx=0;exitDy=0;entryX=0.5;entryY=0;entryDx=0;entryDy=0;" edge="1" parent="1" source="48MLGOUjKtrmcHyPgKex-216" target="48MLGOUjKtrmcHyPgKex-181">
          <mxGeometry relative="1" as="geometry" />
        </mxCell>
        <mxCell id="48MLGOUjKtrmcHyPgKex-216" value="is simple or final round" style="rhombus;whiteSpace=wrap;html=1;" vertex="1" parent="1">
          <mxGeometry x="510" y="-940" width="220" height="100" as="geometry" />
        </mxCell>
        <mxCell id="48MLGOUjKtrmcHyPgKex-224" value="" style="edgeStyle=orthogonalEdgeStyle;rounded=0;orthogonalLoop=1;jettySize=auto;html=1;entryX=0.5;entryY=0;entryDx=0;entryDy=0;" edge="1" parent="1" source="48MLGOUjKtrmcHyPgKex-135" target="48MLGOUjKtrmcHyPgKex-223">
          <mxGeometry relative="1" as="geometry">
            <mxPoint x="1430" y="2366" as="sourcePoint" />
            <mxPoint x="295" y="-24" as="targetPoint" />
            <Array as="points">
              <mxPoint x="610" y="2366" />
              <mxPoint x="610" y="-115" />
            </Array>
          </mxGeometry>
        </mxCell>
        <mxCell id="48MLGOUjKtrmcHyPgKex-223" value="show answer" style="rounded=1;whiteSpace=wrap;html=1;" vertex="1" parent="1">
          <mxGeometry x="235" y="-100" width="120" height="60" as="geometry" />
        </mxCell>
        <mxCell id="48MLGOUjKtrmcHyPgKex-225" value="by number of points (ASC)" style="text;html=1;align=center;verticalAlign=middle;resizable=0;points=[];autosize=1;strokeColor=none;fillColor=none;" vertex="1" parent="1">
          <mxGeometry x="850" y="-700" width="160" height="30" as="geometry" />
        </mxCell>
        <mxCell id="48MLGOUjKtrmcHyPgKex-228" value="" style="rounded=1;whiteSpace=wrap;html=1;" vertex="1" parent="1">
          <mxGeometry x="4990" y="636" width="1080" height="1100" as="geometry" />
        </mxCell>
        <mxCell id="48MLGOUjKtrmcHyPgKex-229" value="no risk question" style="text;html=1;align=center;verticalAlign=middle;resizable=0;points=[];autosize=1;strokeColor=none;fillColor=none;" vertex="1" parent="1">
          <mxGeometry x="5060" y="676" width="110" height="30" as="geometry" />
        </mxCell>
        <mxCell id="48MLGOUjKtrmcHyPgKex-232" value="" style="rhombus;whiteSpace=wrap;html=1;" vertex="1" parent="1">
          <mxGeometry x="5100" y="1036" width="830" height="567" as="geometry" />
        </mxCell>
        <mxCell id="48MLGOUjKtrmcHyPgKex-233" value="" style="edgeStyle=orthogonalEdgeStyle;rounded=0;orthogonalLoop=1;jettySize=auto;html=1;exitX=0.5;exitY=1;exitDx=0;exitDy=0;" edge="1" parent="1" source="48MLGOUjKtrmcHyPgKex-247" target="48MLGOUjKtrmcHyPgKex-235">
          <mxGeometry relative="1" as="geometry">
            <mxPoint x="5514.999999999999" y="1179" as="sourcePoint" />
          </mxGeometry>
        </mxCell>
        <mxCell id="48MLGOUjKtrmcHyPgKex-234" style="edgeStyle=orthogonalEdgeStyle;rounded=0;orthogonalLoop=1;jettySize=auto;html=1;exitX=0.5;exitY=1;exitDx=0;exitDy=0;entryX=0.5;entryY=0;entryDx=0;entryDy=0;" edge="1" parent="1" source="48MLGOUjKtrmcHyPgKex-235" target="48MLGOUjKtrmcHyPgKex-240">
          <mxGeometry relative="1" as="geometry" />
        </mxCell>
        <mxCell id="48MLGOUjKtrmcHyPgKex-235" value="show answer to admin and let him decide correctness" style="rounded=1;whiteSpace=wrap;html=1;" vertex="1" parent="1">
          <mxGeometry x="5455" y="1209" width="120" height="60" as="geometry" />
        </mxCell>
        <mxCell id="48MLGOUjKtrmcHyPgKex-236" style="edgeStyle=orthogonalEdgeStyle;rounded=0;orthogonalLoop=1;jettySize=auto;html=1;exitX=0.5;exitY=1;exitDx=0;exitDy=0;" edge="1" parent="1" source="48MLGOUjKtrmcHyPgKex-237" target="48MLGOUjKtrmcHyPgKex-242">
          <mxGeometry relative="1" as="geometry" />
        </mxCell>
        <mxCell id="48MLGOUjKtrmcHyPgKex-237" value="presses correct answer" style="shape=hexagon;perimeter=hexagonPerimeter2;whiteSpace=wrap;html=1;fixedSize=1;" vertex="1" parent="1">
          <mxGeometry x="5310" y="1349" width="120" height="80" as="geometry" />
        </mxCell>
        <mxCell id="48MLGOUjKtrmcHyPgKex-238" style="edgeStyle=orthogonalEdgeStyle;rounded=0;orthogonalLoop=1;jettySize=auto;html=1;exitX=0;exitY=0.5;exitDx=0;exitDy=0;entryX=0.5;entryY=0;entryDx=0;entryDy=0;" edge="1" parent="1" source="48MLGOUjKtrmcHyPgKex-240" target="48MLGOUjKtrmcHyPgKex-237">
          <mxGeometry relative="1" as="geometry" />
        </mxCell>
        <mxCell id="48MLGOUjKtrmcHyPgKex-239" style="edgeStyle=orthogonalEdgeStyle;rounded=0;orthogonalLoop=1;jettySize=auto;html=1;exitX=1;exitY=0.5;exitDx=0;exitDy=0;entryX=0.5;entryY=0;entryDx=0;entryDy=0;" edge="1" parent="1" source="48MLGOUjKtrmcHyPgKex-240" target="48MLGOUjKtrmcHyPgKex-241">
          <mxGeometry relative="1" as="geometry" />
        </mxCell>
        <mxCell id="48MLGOUjKtrmcHyPgKex-240" value="" style="rhombus;whiteSpace=wrap;html=1;" vertex="1" parent="1">
          <mxGeometry x="5475" y="1289" width="80" height="80" as="geometry" />
        </mxCell>
        <mxCell id="48MLGOUjKtrmcHyPgKex-241" value="presses wrong answer" style="shape=hexagon;perimeter=hexagonPerimeter2;whiteSpace=wrap;html=1;fixedSize=1;" vertex="1" parent="1">
          <mxGeometry x="5600" y="1349" width="120" height="80" as="geometry" />
        </mxCell>
        <mxCell id="48MLGOUjKtrmcHyPgKex-242" value="" style="shape=waypoint;sketch=0;size=6;pointerEvents=1;points=[];fillColor=default;resizable=0;rotatable=0;perimeter=centerPerimeter;snapToPoint=1;" vertex="1" parent="1">
          <mxGeometry x="5500" y="1492" width="20" height="20" as="geometry" />
        </mxCell>
        <mxCell id="48MLGOUjKtrmcHyPgKex-245" style="edgeStyle=orthogonalEdgeStyle;rounded=0;orthogonalLoop=1;jettySize=auto;html=1;exitX=0.5;exitY=1;exitDx=0;exitDy=0;entryX=0.5;entryY=0;entryDx=0;entryDy=0;" edge="1" parent="1" source="48MLGOUjKtrmcHyPgKex-246" target="48MLGOUjKtrmcHyPgKex-247">
          <mxGeometry relative="1" as="geometry" />
        </mxCell>
        <mxCell id="48MLGOUjKtrmcHyPgKex-246" value="show question" style="rounded=1;whiteSpace=wrap;html=1;" vertex="1" parent="1">
          <mxGeometry x="5455" y="956" width="120" height="60" as="geometry" />
        </mxCell>
        <mxCell id="48MLGOUjKtrmcHyPgKex-247" value="question time out" style="shape=process;whiteSpace=wrap;html=1;backgroundOutline=1;" vertex="1" parent="1">
          <mxGeometry x="5455" y="1112" width="120" height="60" as="geometry" />
        </mxCell>
        <mxCell id="48MLGOUjKtrmcHyPgKex-248" style="edgeStyle=orthogonalEdgeStyle;rounded=0;orthogonalLoop=1;jettySize=auto;html=1;exitX=0.5;exitY=1;exitDx=0;exitDy=0;entryX=1.013;entryY=0.109;entryDx=0;entryDy=0;entryPerimeter=0;" edge="1" parent="1" source="48MLGOUjKtrmcHyPgKex-241" target="48MLGOUjKtrmcHyPgKex-242">
          <mxGeometry relative="1" as="geometry" />
        </mxCell>
        <mxCell id="48MLGOUjKtrmcHyPgKex-249" value="If player answers wrong then he should be disabled from further answers on this question.&lt;div&gt;&lt;br&gt;&lt;/div&gt;&lt;div&gt;&lt;br&gt;&lt;/div&gt;" style="text;html=1;whiteSpace=wrap;overflow=hidden;rounded=0;" vertex="1" parent="1">
          <mxGeometry x="1660" y="1606" width="180" height="51" as="geometry" />
        </mxCell>
        <mxCell id="48MLGOUjKtrmcHyPgKex-254" style="edgeStyle=orthogonalEdgeStyle;rounded=0;orthogonalLoop=1;jettySize=auto;html=1;exitX=1;exitY=1;exitDx=0;exitDy=0;entryX=1;entryY=0.5;entryDx=0;entryDy=0;" edge="1" parent="1" source="48MLGOUjKtrmcHyPgKex-250" target="48MLGOUjKtrmcHyPgKex-17">
          <mxGeometry relative="1" as="geometry">
            <Array as="points">
              <mxPoint x="1900" y="1600" />
              <mxPoint x="1900" y="736" />
            </Array>
          </mxGeometry>
        </mxCell>
        <mxCell id="48MLGOUjKtrmcHyPgKex-255" value="no" style="edgeLabel;html=1;align=center;verticalAlign=middle;resizable=0;points=[];" vertex="1" connectable="0" parent="48MLGOUjKtrmcHyPgKex-254">
          <mxGeometry x="-0.889" y="3" relative="1" as="geometry">
            <mxPoint as="offset" />
          </mxGeometry>
        </mxCell>
        <mxCell id="48MLGOUjKtrmcHyPgKex-250" value="all players have answered?" style="rhombus;whiteSpace=wrap;html=1;" vertex="1" parent="1">
          <mxGeometry x="1520" y="1540" width="210" height="80" as="geometry" />
        </mxCell>
        <mxCell id="48MLGOUjKtrmcHyPgKex-252" style="edgeStyle=orthogonalEdgeStyle;rounded=0;orthogonalLoop=1;jettySize=auto;html=1;exitX=0;exitY=1;exitDx=0;exitDy=0;entryX=0.182;entryY=0.709;entryDx=0;entryDy=0;entryPerimeter=0;" edge="1" parent="1" source="48MLGOUjKtrmcHyPgKex-250" target="48MLGOUjKtrmcHyPgKex-33">
          <mxGeometry relative="1" as="geometry">
            <Array as="points">
              <mxPoint x="1572" y="1630" />
              <mxPoint x="1415" y="1630" />
            </Array>
          </mxGeometry>
        </mxCell>
        <mxCell id="48MLGOUjKtrmcHyPgKex-253" value="yes" style="edgeLabel;html=1;align=center;verticalAlign=middle;resizable=0;points=[];" vertex="1" connectable="0" parent="48MLGOUjKtrmcHyPgKex-252">
          <mxGeometry x="0.0046" relative="1" as="geometry">
            <mxPoint x="1" as="offset" />
          </mxGeometry>
        </mxCell>
        <mxCell id="48MLGOUjKtrmcHyPgKex-256" value="" style="rounded=0;whiteSpace=wrap;html=1;" vertex="1" parent="1">
          <mxGeometry x="630" y="1359" width="210" height="171" as="geometry" />
        </mxCell>
        <mxCell id="48MLGOUjKtrmcHyPgKex-257" value="set points to player" style="shape=parallelogram;perimeter=parallelogramPerimeter;whiteSpace=wrap;html=1;fixedSize=1;" vertex="1" parent="1">
          <mxGeometry x="670" y="1372" width="140" height="60" as="geometry" />
        </mxCell>
        <mxCell id="48MLGOUjKtrmcHyPgKex-258" value="set player active" style="shape=parallelogram;perimeter=parallelogramPerimeter;whiteSpace=wrap;html=1;fixedSize=1;" vertex="1" parent="1">
          <mxGeometry x="665" y="1452" width="140" height="60" as="geometry" />
        </mxCell>
        <mxCell id="48MLGOUjKtrmcHyPgKex-260" value="if player chooses all-in then other players can only choose all-in or pass" style="text;html=1;align=center;verticalAlign=middle;whiteSpace=wrap;rounded=0;" vertex="1" parent="1">
          <mxGeometry x="2860" y="740" width="190" height="90" as="geometry" />
        </mxCell>
        <mxCell id="48MLGOUjKtrmcHyPgKex-261" value="active players are the ones who have &amp;gt;= points that current stake&lt;div&gt;&lt;br&gt;&lt;/div&gt;&lt;div&gt;initial stake = question cost&lt;/div&gt;" style="text;html=1;align=center;verticalAlign=middle;whiteSpace=wrap;rounded=0;" vertex="1" parent="1">
          <mxGeometry x="2520" y="650" width="190" height="90" as="geometry" />
        </mxCell>
        <mxCell id="48MLGOUjKtrmcHyPgKex-262" value="player with most stake" style="text;html=1;align=center;verticalAlign=middle;whiteSpace=wrap;rounded=0;" vertex="1" parent="1">
          <mxGeometry x="2790" y="900" width="120" height="30" as="geometry" />
        </mxCell>
        <mxCell id="48MLGOUjKtrmcHyPgKex-264" style="edgeStyle=orthogonalEdgeStyle;rounded=0;orthogonalLoop=1;jettySize=auto;html=1;exitX=0.5;exitY=1;exitDx=0;exitDy=0;entryX=1.275;entryY=1;entryDx=0;entryDy=0;entryPerimeter=0;" edge="1" parent="1" source="48MLGOUjKtrmcHyPgKex-228" target="48MLGOUjKtrmcHyPgKex-135">
          <mxGeometry relative="1" as="geometry" />
        </mxCell>
        <mxCell id="48MLGOUjKtrmcHyPgKex-265" value="other player set to current" style="rounded=1;whiteSpace=wrap;html=1;" vertex="1" parent="1">
          <mxGeometry x="4350" y="836" width="120" height="60" as="geometry" />
        </mxCell>
        <mxCell id="48MLGOUjKtrmcHyPgKex-267" value="also select questions?" style="text;html=1;align=center;verticalAlign=middle;whiteSpace=wrap;rounded=0;" vertex="1" parent="1">
          <mxGeometry x="1130" y="670" width="60" height="30" as="geometry" />
        </mxCell>
        <mxCell id="48MLGOUjKtrmcHyPgKex-271" style="edgeStyle=orthogonalEdgeStyle;rounded=0;orthogonalLoop=1;jettySize=auto;html=1;exitX=0;exitY=0.5;exitDx=0;exitDy=0;entryX=0.5;entryY=0;entryDx=0;entryDy=0;" edge="1" parent="1" source="48MLGOUjKtrmcHyPgKex-268" target="48MLGOUjKtrmcHyPgKex-159">
          <mxGeometry relative="1" as="geometry" />
        </mxCell>
        <mxCell id="48MLGOUjKtrmcHyPgKex-272" value="yes" style="edgeLabel;html=1;align=center;verticalAlign=middle;resizable=0;points=[];" vertex="1" connectable="0" parent="48MLGOUjKtrmcHyPgKex-271">
          <mxGeometry x="-0.9507" y="4" relative="1" as="geometry">
            <mxPoint as="offset" />
          </mxGeometry>
        </mxCell>
        <mxCell id="48MLGOUjKtrmcHyPgKex-273" style="edgeStyle=orthogonalEdgeStyle;rounded=0;orthogonalLoop=1;jettySize=auto;html=1;exitX=1;exitY=0.5;exitDx=0;exitDy=0;entryX=0.5;entryY=0;entryDx=0;entryDy=0;" edge="1" parent="1" source="48MLGOUjKtrmcHyPgKex-268" target="48MLGOUjKtrmcHyPgKex-216">
          <mxGeometry relative="1" as="geometry">
            <Array as="points">
              <mxPoint x="1230" y="679" />
              <mxPoint x="1230" y="-960" />
              <mxPoint x="620" y="-960" />
            </Array>
          </mxGeometry>
        </mxCell>
        <mxCell id="48MLGOUjKtrmcHyPgKex-274" value="no" style="edgeLabel;html=1;align=center;verticalAlign=middle;resizable=0;points=[];" vertex="1" connectable="0" parent="48MLGOUjKtrmcHyPgKex-273">
          <mxGeometry x="-0.986" y="1" relative="1" as="geometry">
            <mxPoint as="offset" />
          </mxGeometry>
        </mxCell>
        <mxCell id="48MLGOUjKtrmcHyPgKex-268" value="is last round?" style="rhombus;whiteSpace=wrap;html=1;" vertex="1" parent="1">
          <mxGeometry x="450" y="639" width="110" height="80" as="geometry" />
        </mxCell>
      </root>
    </mxGraphModel>
  </diagram>
</mxfile>
